<?xml version="1.0" standalone="no"?>
<!DOCTYPE svg PUBLIC "-//W3C//DTD SVG 20010904//EN"
 "http://www.w3.org/TR/2001/REC-SVG-20010904/DTD/svg10.dtd">
<svg version="1.0" xmlns="http://www.w3.org/2000/svg"
 width="140.000000pt" height="150.000000pt" viewBox="0 0 140.000000 150.000000"
 preserveAspectRatio="xMidYMid meet">

<g transform="translate(0.000000,150.000000) scale(0.100000,-0.100000)"
fill="#000000" stroke="none">
<path d="M589 1413 c-35 -18 -63 -42 -79 -67 -24 -37 -26 -38 -67 -32 -24 3
-65 17 -93 31 -27 14 -54 25 -59 25 -16 0 -32 -37 -40 -89 -6 -45 -8 -46 -40
-44 -19 1 -52 9 -73 19 -46 21 -53 15 -63 -52 -8 -55 10 -119 41 -150 23 -23
25 -24 53 -9 24 12 69 15 225 15 193 0 195 0 225 25 17 15 40 51 53 85 21 56
38 76 38 48 0 -24 48 -115 71 -137 22 -20 32 -21 221 -21 156 0 205 -3 228
-15 27 -14 29 -14 60 22 31 35 32 38 28 114 -1 42 -6 81 -11 85 -4 4 -23 0
-42 -9 -20 -9 -53 -20 -75 -23 -39 -6 -40 -6 -40 25 0 17 -7 49 -16 72 -19 45
-15 45 -109 5 -86 -37 -107 -34 -139 15 -58 87 -192 115 -297 62z"/>
<path d="M160 883 c-36 -7 -40 -18 -40 -111 l0 -83 50 -74 c28 -41 54 -75 58
-75 21 0 32 29 32 86 0 77 6 94 34 94 42 0 46 -16 46 -182 l0 -158 64 -67 c88
-93 95 -87 98 95 l3 137 29 3 c16 2 32 -2 37 -10 5 -7 9 -100 9 -205 l0 -192
52 -36 c29 -19 59 -35 66 -35 8 0 38 17 68 38 l53 37 3 200 3 200 26 3 c14 2
31 -3 37 -11 7 -8 13 -66 14 -148 4 -165 10 -169 94 -73 l59 67 5 166 c5 165
5 166 29 169 36 5 46 -12 51 -96 7 -103 22 -105 84 -11 l48 72 -1 91 c0 75 -4
93 -18 104 -14 10 -67 13 -236 10 l-219 -3 -28 -32 c-20 -23 -33 -53 -45 -110
-28 -137 -27 -135 -46 -35 -22 113 -43 153 -89 169 -34 12 -374 16 -430 6z"/>
</g>
</svg>
