<svg viewBox="0 0 32 32" xmlns="http://www.w3.org/2000/svg"><path d="m51.697 7.377-.8 2.836a8.957 8.957 0 0 0-3.79 2.2l-2.867-.73-1.636 2.835 2.068 2.148a8.957 8.957 0 0 0-.272 2.15 8.957 8.957 0 0 0 .29 2.211l-2.086 2.143 1.636 2.832 2.92-.723a8.957 8.957 0 0 0 3.711 2.139l.826 2.932h3.272l.845-2.928a8.957 8.957 0 0 0 3.737-2.15l2.947.73 1.637-2.832-2.102-2.158a8.957 8.957 0 0 0 .281-2.196 8.957 8.957 0 0 0-.27-2.128l2.09-2.17-1.636-2.834-2.879.73a8.957 8.957 0 0 0-3.836-2.219l-.814-2.818h-3.272zm-.572 7.621h4.488l2.219 3.846-2.242 3.885h-4.442l-2.244-3.885 2.221-3.846ZM63.883 1.65l-.344 1.215a3.84 3.84 0 0 0-1.625.944l-1.23-.313-.702 1.215.887.92a3.84 3.84 0 0 0-.115.924 3.84 3.84 0 0 0 .123.949l-.895.918.702 1.215 1.252-.31a3.84 3.84 0 0 0 1.591.915l.356 1.258h1.402l.361-1.256a3.84 3.84 0 0 0 1.602-.922l1.266.315.7-1.215-.901-.928a3.84 3.84 0 0 0 .12-.94 3.84 3.84 0 0 0-.115-.913l.897-.93-.701-1.215-1.237.315a3.84 3.84 0 0 0-1.644-.954l-.348-1.207h-1.402zm-.246 3.268h1.924l.95 1.648-.96 1.666h-1.905l-.96-1.666.95-1.648z" transform="matrix(.93531 0 0 .93531 -36.293 1.035)" opacity="1" fill="none" fill-opacity="1" stroke="#c5c9d1" stroke-width="1" stroke-linecap="round" stroke-linejoin="round" stroke-miterlimit="4" stroke-dasharray="none" stroke-opacity="1" class="stroke-0e6ea1"></path></svg>