<svg width="256" height="256" xmlns="http://www.w3.org/2000/svg">

 <g>
  <title>background</title>
  <rect fill="none" id="canvas_background" height="402" width="582" y="-1" x="-1"/>
 </g>
 <g>
  <title>Layer 1</title>
  <rect id="svg_1" width="256" height="256" fill="none"/>
  <path id="svg_2" opacity="0.2" d="m114.2,40l-88,152a16,16 0 0 0 13.8,24l176,0a16,16 0 0 0 13.8,-24l-88,-152a15.9,15.9 0 0 0 -27.6,0z"/>
  <path id="svg_3" stroke-width="16" stroke-linejoin="round" stroke-linecap="round" stroke="#000" fill="#3f007f" d="m114.2,40l-88,152a16,16 0 0 0 13.8,24l176,0a16,16 0 0 0 13.8,-24l-88,-152a15.9,15.9 0 0 0 -27.6,0z"/>
 </g>
</svg>